<?xml version="1.0" encoding="UTF-8"?>
<svg version="1.1" xmlns="http://www.w3.org/2000/svg" width="161" height="166">
<path d="M0 0 C53.13 0 106.26 0 161 0 C161 54.78 161 109.56 161 166 C107.87 166 54.74 166 0 166 C0 111.22 0 56.44 0 0 Z " fill="#2E1C08" transform="translate(0,0)"/>
<path d="M0 0 C2.62782028 0.61526127 5.15517765 0.77570557 7.84936523 0.93676758 C9.48808594 1.04698242 9.48808594 1.04698242 11.15991211 1.15942383 C13.45110434 1.30757806 15.74279408 1.44823335 18.03491211 1.58129883 C19.67556641 1.69538086 19.67556641 1.69538086 21.34936523 1.81176758 C22.84294556 1.90433838 22.84294556 1.90433838 24.36669922 1.9987793 C27.5314253 2.57348141 29.49837969 3.75029547 32.16577148 5.50708008 C34.32581995 6.19309931 34.32581995 6.19309931 36.41577148 6.56958008 C37.65327148 6.87895508 38.89077148 7.18833008 40.16577148 7.50708008 C40.66077148 8.49708008 40.66077148 8.49708008 41.16577148 9.50708008 C42.15577148 9.83708008 43.14577148 10.16708008 44.16577148 10.50708008 C45.15577148 11.99208008 45.15577148 11.99208008 46.16577148 13.50708008 C47.15577148 13.83708008 48.14577148 14.16708008 49.16577148 14.50708008 C50.85327148 15.88208008 50.85327148 15.88208008 52.16577148 17.50708008 C52.16577148 18.49708008 52.16577148 19.48708008 52.16577148 20.50708008 C53.74358398 20.01208008 53.74358398 20.01208008 55.35327148 19.50708008 C58.55450506 18.66741226 60.90687228 18.30957104 64.16577148 18.50708008 C64.66077148 17.02208008 64.66077148 17.02208008 65.16577148 15.50708008 C69.12577148 15.01208008 69.12577148 15.01208008 73.16577148 14.50708008 C73.16577148 15.16708008 73.16577148 15.82708008 73.16577148 16.50708008 C74.48577148 16.50708008 75.80577148 16.50708008 77.16577148 16.50708008 C77.16577148 17.49708008 77.16577148 18.48708008 77.16577148 19.50708008 C77.82577148 19.50708008 78.48577148 19.50708008 79.16577148 19.50708008 C79.26889648 20.14645508 79.37202148 20.78583008 79.47827148 21.44458008 C79.70514648 22.12520508 79.93202148 22.80583008 80.16577148 23.50708008 C81.65077148 24.00208008 81.65077148 24.00208008 83.16577148 24.50708008 C82.67077148 22.52708008 82.67077148 22.52708008 82.16577148 20.50708008 C84.14577148 21.00208008 84.14577148 21.00208008 86.16577148 21.50708008 C87.15577148 20.02208008 87.15577148 20.02208008 88.16577148 18.50708008 C90.60327148 18.13208008 90.60327148 18.13208008 93.16577148 18.50708008 C95.76629554 20.58242976 96.58180014 22.15713366 97.07983398 25.41333008 C97.20100586 26.15711914 97.32217773 26.9009082 97.44702148 27.66723633 C97.56045898 28.43938477 97.67389648 29.2115332 97.79077148 30.00708008 C98.65728591 35.82861919 98.65728591 35.82861919 100.16577148 41.50708008 C57.26577148 41.50708008 14.36577148 41.50708008 -29.83422852 41.50708008 C-29.83422852 27.64708008 -29.83422852 13.78708008 -29.83422852 -0.49291992 C-22.73218891 -4.04393972 -7.48374633 -2.01113854 0 0 Z " fill="#1C0E03" transform="translate(29.834228515625,124.492919921875)"/>
<path d="M0 0 C0 1.32 0 2.64 0 4 C0.556875 4.226875 1.11375 4.45375 1.6875 4.6875 C4.6469509 6.36718835 6.66126784 8.54133285 9 11 C9.598125 11.556875 10.19625 12.11375 10.8125 12.6875 C12 14 12 14 12 16 C12.99 16 13.98 16 15 16 C15.2784375 17.3921875 15.2784375 17.3921875 15.5625 18.8125 C16.69633547 22.25857114 16.69633547 22.25857114 20 23.375 C20.61746094 23.5915625 21.23492187 23.808125 21.87109375 24.03125 C26.45934015 26.11911258 30.16820769 29.77852601 34 33 C34.65097656 33.515625 35.30195312 34.03125 35.97265625 34.5625 C37.35467886 35.66027682 38.68467538 36.8231306 40 38 C40 38.66 40 39.32 40 40 C40.58652344 40.25652344 41.17304687 40.51304688 41.77734375 40.77734375 C48.09122343 44.25053239 51.60304455 50.29772557 53.58984375 57.01953125 C54 59 54 59 54 62 C47.58540748 62.37732897 47.58540748 62.37732897 44.703125 60.51953125 C39.3275687 57.49772287 32.96576587 58.34500493 27 59 C22.78056276 60.29793053 18.94330744 62.03478959 15 64 C13.515 64.495 13.515 64.495 12 65 C12 64.01 12 63.02 12 62 C10.515 61.505 10.515 61.505 9 61 C9 60.34 9 59.68 9 59 C8.360625 58.896875 7.72125 58.79375 7.0625 58.6875 C6.381875 58.460625 5.70125 58.23375 5 58 C4.67 57.01 4.34 56.02 4 55 C1.98491642 54.26676204 1.98491642 54.26676204 0 54 C0 53.34 0 52.68 0 52 C-1.216875 51.896875 -2.43375 51.79375 -3.6875 51.6875 C-6.48626432 51.45031658 -7.91150437 51.05737392 -10.30273438 49.50708008 C-13.2405561 47.8655908 -15.06264122 47.5525295 -18.39453125 47.375 C-19.42473389 47.30990234 -20.45493652 47.24480469 -21.51635742 47.17773438 C-22.60408447 47.11908203 -23.69181152 47.06042969 -24.8125 47 C-33.51084682 46.42465461 -41.85851609 45.50455104 -50.38671875 43.73046875 C-56.21918343 42.55136508 -62.10224911 41.78329504 -68 41 C-66.59965804 36.79897412 -64.61302173 34.12112327 -61.625 30.875 C-60.85414062 30.02679688 -60.08328125 29.17859375 -59.2890625 28.3046875 C-57.28016114 26.2820735 -55.38587969 24.55335997 -53 23 C-52.34 23 -51.68 23 -51 23 C-51 22.34 -51 21.68 -51 21 C-44.55172414 17.20689655 -44.55172414 17.20689655 -41.5 16.0625 C-38.75928077 15.01835462 -38.75928077 15.01835462 -35.87890625 12.62890625 C-31.97350538 9.79940004 -28.00371722 8.32807179 -23.4375 6.875 C-17.62410627 4.97318242 -12.20205581 2.94063989 -6.9375 -0.25 C-4.33981665 -1.25555484 -2.63516836 -0.73199121 0 0 Z " fill="#D5A871" transform="translate(70,80)"/>
<path d="M0 0 C3.125 0.375 3.125 0.375 6 1 C6 1.99 6 2.98 6 4 C6.66 4 7.32 4 8 4 C8 3.34 8 2.68 8 2 C9.98 1.67 11.96 1.34 14 1 C13.34 2.32 12.68 3.64 12 5 C13.69769531 4.98259766 13.69769531 4.98259766 15.4296875 4.96484375 C16.91145669 4.95546546 18.39322765 4.9463653 19.875 4.9375 C20.62136719 4.92912109 21.36773437 4.92074219 22.13671875 4.91210938 C27.7734375 4.88671875 27.7734375 4.88671875 30 6 C30 6.99 30 7.98 30 9 C31.918125 9.185625 31.918125 9.185625 33.875 9.375 C37.75 9.75 37.75 9.75 40 12 C42.58197434 12.14344302 45.10541155 11.99509714 47.6875 11.875 C52.17798197 12.04445215 56.59358615 13.11871723 61 14 C61 28.85 61 43.7 61 59 C55.92625 59.061875 50.8525 59.12375 45.625 59.1875 C43.22468506 59.22846802 43.22468506 59.22846802 40.77587891 59.27026367 C38.89521729 59.28150269 38.89521729 59.28150269 36.9765625 59.29296875 C35.68830566 59.3086792 34.40004883 59.32438965 33.07275391 59.34057617 C32.05874512 59.22818604 31.04473633 59.1157959 30 59 C28.14082221 56.21123331 27.6882351 55.19107805 27.21875 52.05859375 C27.09886719 51.31029297 26.97898438 50.56199219 26.85546875 49.79101562 C26.61791274 48.21818598 26.38093633 46.64526868 26.14453125 45.07226562 C25.55392222 40.58332128 25.55392222 40.58332128 23 37 C20.5 36.58333333 20.5 36.58333333 18 37 C17.34 37.99 16.68 38.98 16 40 C15.01 40 14.02 40 13 40 C13 40.66 13 41.32 13 42 C11.68 41.67 10.36 41.34 9 41 C9 39.68 9 38.36 9 37 C8.34 37 7.68 37 7 37 C7 36.01 7 35.02 7 34 C5.68 34 4.36 34 3 34 C3 33.34 3 32.68 3 32 C1.68528432 32.28151087 0.37324233 32.57553339 -0.9375 32.875 C-2.03384766 33.11863281 -2.03384766 33.11863281 -3.15234375 33.3671875 C-5.20700294 33.82961523 -5.20700294 33.82961523 -6 36 C-8.06640625 36.4140625 -8.06640625 36.4140625 -10.5625 36.625 C-11.38878906 36.69976562 -12.21507813 36.77453125 -13.06640625 36.8515625 C-13.70449219 36.90054688 -14.34257813 36.94953125 -15 37 C-7.94946698 30.83078361 -0.37003118 30.65599611 8.51171875 30.6015625 C12.20616392 31.0235484 13.95406548 31.97111553 17 34 C20.69523952 34.71923208 20.69523952 34.71923208 24 35 C20.70936681 22.20549859 13.93688626 15.23984601 4 7 C3.39414063 6.49082031 2.78828125 5.98164062 2.1640625 5.45703125 C0.7813717 4.29829741 -0.60842508 3.14804931 -2 2 C-1.34 1.34 -0.68 0.68 0 0 Z " fill="#543714" transform="translate(100,107)"/>
<path d="M0 0 C2.475 0.495 2.475 0.495 5 1 C5 2.32 5 3.64 5 5 C5.5775 5.0825 6.155 5.165 6.75 5.25 C9.72576056 6.24192019 11.03998366 7.56687627 13 10 C13.75 12.75 13.75 12.75 14 15 C14.66 15 15.32 15 16 15 C17.45184478 19.53701494 18.23509196 23.18061476 18 28 C14.7 27.67 11.4 27.34 8 27 C7.67 27.66 7.34 28.32 7 29 C7.66 29 8.32 29 9 29 C9 29.99 9 30.98 9 32 C9.928125 31.95875 10.85625 31.9175 11.8125 31.875 C15 32 15 32 18 34 C18.36328125 36.0234375 18.36328125 36.0234375 18.3125 38.375 C18.30863281 39.14585938 18.30476563 39.91671875 18.30078125 40.7109375 C17.97261875 43.20838198 17.1380817 44.77125667 16 47 C15.68827025 48.63857945 15.41910967 50.28569038 15.1875 51.9375 C14.28484771 56.68866983 13.02156503 59.07522543 9 62 C3.87747642 64.56126179 -0.5384241 63.89812581 -6 63 C-6 62.01 -6 61.02 -6 60 C-6.99 60 -7.98 60 -9 60 C-11.10858865 56.83711702 -11.28302285 54.8744356 -11.6484375 51.1796875 C-12.01497953 48.9071269 -12.67947467 47.0584113 -13.5625 44.9375 C-15.12670328 41.102924 -15.25721091 38.11537458 -15 34 C-13.01432292 33.77213542 -11.02864583 33.54427083 -9.04296875 33.31640625 C-6.80603607 33.02829265 -6.80603607 33.02829265 -4 32 C-4 31.01 -4 30.02 -4 29 C-3.34 29 -2.68 29 -2 29 C-2.33 28.34 -2.66 27.68 -3 27 C-6.96 27 -10.92 27 -15 27 C-14.85761163 24.95809019 -14.71092972 22.91647955 -14.5625 20.875 C-14.48128906 19.73804687 -14.40007812 18.60109375 -14.31640625 17.4296875 C-14.02269035 14.2459522 -13.56875687 11.14489093 -13 8 C-9.535 7.505 -9.535 7.505 -6 7 C-6.33 5.68 -6.66 4.36 -7 3 C-4.69 3 -2.38 3 0 3 C0 2.01 0 1.02 0 0 Z " fill="#D5A269" transform="translate(81,19)"/>
<path d="M0 0 C2.73064947 0.08730853 5.4581619 0.19422124 8.1875 0.3125 C9.34088867 0.34633789 9.34088867 0.34633789 10.51757812 0.38085938 C15.22538146 0.60311618 18.03238148 1.27095023 22 4 C24.16004846 4.68601923 24.16004846 4.68601923 26.25 5.0625 C27.4875 5.371875 28.725 5.68125 30 6 C30.33 6.66 30.66 7.32 31 8 C32.485 8.495 32.485 8.495 34 9 C34.66 9.99 35.32 10.98 36 12 C36.99 12.33 37.98 12.66 39 13 C40.6875 14.375 40.6875 14.375 42 16 C42 16.99 42 17.98 42 19 C42.99 18.67 43.98 18.34 45 18 C45.495 20.475 45.495 20.475 46 23 C46.66 23 47.32 23 48 23 C48 23.99 48 24.98 48 26 C45.03 26.495 45.03 26.495 42 27 C42.020625 27.94875 42.04125 28.8975 42.0625 29.875 C42 33 42 33 41 35 C40.34 35 39.68 35 39 35 C39 35.99 39 36.98 39 38 C39.66 38 40.32 38 41 38 C41 38.66 41 39.32 41 40 C35.72 40 30.44 40 25 40 C24.67 38.02 24.34 36.04 24 34 C22.515 33.505 22.515 33.505 21 33 C22.32 33 23.64 33 25 33 C24.34 27.39 23.68 21.78 23 16 C22.34 16 21.68 16 21 16 C21.33 14.68 21.66 13.36 22 12 C19.23735711 11.40267181 16.83967231 11 14 11 C12.33333333 11 10.66666667 11 9 11 C8.4465236 8.92446352 8 7.15634036 8 5 C8.99 4.67 9.98 4.34 11 4 C7.37 3.01 3.74 2.02 0 1 C0 0.67 0 0.34 0 0 Z " fill="#2C1F0C" transform="translate(40,126)"/>
<path d="M0 0 C1.65 0.33 3.3 0.66 5 1 C5 2.32 5 3.64 5 5 C5.5775 5.0825 6.155 5.165 6.75 5.25 C9.72576056 6.24192019 11.03998366 7.56687627 13 10 C13.75 12.75 13.75 12.75 14 15 C14.66 15 15.32 15 16 15 C17.45184478 19.53701494 18.23509196 23.18061476 18 28 C14.7 27.67 11.4 27.34 8 27 C7.67 27.66 7.34 28.32 7 29 C7.66 29 8.32 29 9 29 C9 29.99 9 30.98 9 32 C9.928125 31.95875 10.85625 31.9175 11.8125 31.875 C15 32 15 32 18 34 C18.36328125 36.0234375 18.36328125 36.0234375 18.3125 38.375 C18.30863281 39.14585938 18.30476563 39.91671875 18.30078125 40.7109375 C17.97261875 43.20838198 17.1380817 44.77125667 16 47 C15.68827025 48.63857945 15.41910967 50.28569038 15.1875 51.9375 C14.28484771 56.68866983 13.02156503 59.07522543 9 62 C3.87747642 64.56126179 -0.5384241 63.89812581 -6 63 C-6 62.01 -6 61.02 -6 60 C-6.99 60 -7.98 60 -9 60 C-10.93377673 57.09933491 -11.27507614 56.20923972 -11.5625 52.9375 C-11.74586541 49.22018139 -11.74586541 49.22018139 -13 47 C-12.01 47.33 -11.02 47.66 -10 48 C-10 50.64 -10 53.28 -10 56 C-9.34 56 -8.68 56 -8 56 C-8 56.99 -8 57.98 -8 59 C-5.69 58.34 -3.38 57.68 -1 57 C-1 55.68 -1 54.36 -1 53 C-2.32 53 -3.64 53 -5 53 C-5 52.34 -5 51.68 -5 51 C-2.69 51 -0.38 51 2 51 C1.2575 50.071875 1.2575 50.071875 0.5 49.125 C-1 47 -1 47 -1 45 C-0.01 45 0.98 45 2 45 C2 45.66 2 46.32 2 47 C2.99 46.505 2.99 46.505 4 46 C3.98839844 44.80761719 3.97679688 43.61523438 3.96484375 42.38671875 C3.95546408 40.82031406 3.94636407 39.25390769 3.9375 37.6875 C3.92912109 36.90181641 3.92074219 36.11613281 3.91210938 35.30664062 C3.90727539 34.1706543 3.90727539 34.1706543 3.90234375 33.01171875 C3.89448853 31.96697388 3.89448853 31.96697388 3.88647461 30.90112305 C4 29 4 29 5 26 C4.01 26 3.02 26 2 26 C2 25.34 2 24.68 2 24 C2.99 24 3.98 24 5 24 C5 23.34 5 22.68 5 22 C6.32 21.67 7.64 21.34 9 21 C9 18.36 9 15.72 9 13 C8.01 12.67 7.02 12.34 6 12 C6.66 12 7.32 12 8 12 C7.67 10.35 7.34 8.7 7 7 C2.71 7 -1.58 7 -6 7 C-6.33 5.68 -6.66 4.36 -7 3 C-4.69 3 -2.38 3 0 3 C0 2.01 0 1.02 0 0 Z " fill="#CE9A5A" transform="translate(81,19)"/>
<path d="M0 0 C4.26279912 4.26279912 4.34505034 10.29258157 5 16 C5.33 16.99 5.66 17.98 6 19 C6.99 19 7.98 19 9 19 C9 19.99 9 20.98 9 22 C14.45129964 22.21805199 18.85897475 22.08089117 24 20 C24.99 19.67 25.98 19.34 27 19 C26.34 22.3 25.68 25.6 25 29 C24.34 29 23.68 29 23 29 C23 32.63 23 36.26 23 40 C23.66 40 24.32 40 25 40 C26.70680947 41.62553283 28.37660195 43.29115995 30 45 C29.67 45.66 29.34 46.32 29 47 C28.34 46.34 27.68 45.68 27 45 C25.515 44.505 25.515 44.505 24 44 C21 43 21 43 19 41 C18.875 38.375 18.875 38.375 19 36 C18.01 36 17.02 36 16 36 C13.16120457 33.46002514 10.71961057 30.68965715 8.3125 27.75 C6.2957678 24.98257806 6.2957678 24.98257806 4 24 C4 22.68 4 21.36 4 20 C2.02 20 0.04 20 -2 20 C-2 19.01 -2 18.02 -2 17 C-1.34 17 -0.68 17 0 17 C0 11.39 0 5.78 0 0 Z " fill="#624118" transform="translate(66,60)"/>
<path d="M0 0 C0 1.65 0 3.3 0 5 C0.33 4.67 0.66 4.34 1 4 C2.28317892 7.84953676 2.06643637 10.94738135 2 15 C0.35 15 -1.3 15 -3 15 C-3 15.66 -3 16.32 -3 17 C-7.27281371 18.16531283 -10.71801543 18.18944016 -15 17 C-18.07606472 12.83242844 -18.66055245 9.09569037 -18 4 C-16.5625 1.625 -16.5625 1.625 -14 0 C-9.25599151 -1.12404679 -4.72170786 -1.37081841 0 0 Z " fill="#DEB582" transform="translate(89,26)"/>
<path d="M0 0 C1.65 0 3.3 0 5 0 C7.42373669 2.53390654 9.42821205 4.8564241 11 8 C13.32156597 8.40729228 15.6568787 8.74438677 18 9 C18.125 14.75 18.125 14.75 17 17 C16.34 17 15.68 17 15 17 C15 17.99 15 18.98 15 20 C15.66 20 16.32 20 17 20 C17 20.66 17 21.32 17 22 C11.72 22 6.44 22 1 22 C0.67 20.02 0.34 18.04 0 16 C-0.99 15.67 -1.98 15.34 -3 15 C-1.68 15 -0.36 15 1 15 C0.67 10.05 0.34 5.1 0 0 Z " fill="#382A12" transform="translate(64,144)"/>
<path d="M0 0 C1.32 0.33 2.64 0.66 4 1 C4 1.66 4 2.32 4 3 C3.34 3 2.68 3 2 3 C2.33 4.32 2.66 5.64 3 7 C0.69 7 -1.62 7 -4 7 C-4 7.99 -4 8.98 -4 10 C-6.31 10.33 -8.62 10.66 -11 11 C-11.06058594 11.78503906 -11.12117188 12.57007813 -11.18359375 13.37890625 C-11.62820214 18.95361148 -12.12124643 24.47640616 -13 30 C-11.9790625 29.7525 -11.9790625 29.7525 -10.9375 29.5 C-7.5835178 28.92910941 -4.39610195 28.93340977 -1 29 C-0.67 29.99 -0.34 30.98 0 32 C-0.66 32 -1.32 32 -2 32 C-2 32.99 -2 33.98 -2 35 C-5.08888522 37.05925681 -5.70935927 37.2390374 -9.1875 37.125 C-10.445625 37.08375 -11.70375 37.0425 -13 37 C-13 39.31 -13 41.62 -13 44 C-13.33 44 -13.66 44 -14 44 C-14.02909769 39.93751511 -14.04683174 35.87505714 -14.0625 31.8125 C-14.07087891 30.66201172 -14.07925781 29.51152344 -14.08789062 28.32617188 C-14.09272461 26.65844727 -14.09272461 26.65844727 -14.09765625 24.95703125 C-14.10289307 23.93585205 -14.10812988 22.91467285 -14.11352539 21.86254883 C-14.00519467 19.13098384 -13.61706868 16.65830626 -13 14 C-13.66 14 -14.32 14 -15 14 C-15 13.01 -15 12.02 -15 11 C-15.763125 10.855625 -16.52625 10.71125 -17.3125 10.5625 C-20 10 -20 10 -23 9 C-23 8.34 -23 7.68 -23 7 C-19.535 6.505 -19.535 6.505 -16 6 C-16 5.34 -16 4.68 -16 4 C-14.4840625 4.0309375 -14.4840625 4.0309375 -12.9375 4.0625 C-9.00708906 4.08560501 -9.00708906 4.08560501 -5.1875 3.4375 C-2 3 -2 3 0 4 C0 2.68 0 1.36 0 0 Z " fill="#452D0F" transform="translate(79,16)"/>
<path d="M0 0 C0 1.32 0 2.64 0 4 C0.928125 4.37125 0.928125 4.37125 1.875 4.75 C4.35068687 6.20628639 4.95125002 7.37812506 6 10 C2.66462511 8.88820837 1.36292656 7.52588702 -1 5 C-3.66735273 7.48952921 -5.55746343 9.63408134 -7 13 C-8.32 12.34 -9.64 11.68 -11 11 C-11 10.01 -11 9.02 -11 8 C-15.78478822 7.90235126 -20.27685687 8.22887459 -25 9 C-25 9.66 -25 10.32 -25 11 C-25.66 11 -26.32 11 -27 11 C-27 11.66 -27 12.32 -27 13 C-28.85523515 15.47364687 -30.123363 16.03947616 -33.125 17 C-34.07375 17.33 -35.0225 17.66 -36 18 C-36.33 18.99 -36.66 19.98 -37 21 C-37.99 21.33 -38.98 21.66 -40 22 C-40.680625 22.350625 -41.36125 22.70125 -42.0625 23.0625 C-44 24 -44 24 -46 24 C-46 23.01 -46 22.02 -46 21 C-46.99 20.67 -47.98 20.34 -49 20 C-46.58075097 18.47932918 -44.3120712 17.1149736 -41.625 16.125 C-38.77737237 15.02988465 -38.77737237 15.02988465 -35.87109375 12.625 C-31.96902168 9.79630355 -28.00068542 8.32710701 -23.4375 6.875 C-17.62410627 4.97318242 -12.20205581 2.94063989 -6.9375 -0.25 C-4.33981665 -1.25555484 -2.63516836 -0.73199121 0 0 Z " fill="#C59566" transform="translate(70,80)"/>
<path d="M0 0 C0.94101563 0.09023437 1.88203125 0.18046875 2.8515625 0.2734375 C5.375 0.625 5.375 0.625 8.375 1.625 C8.86230964 8.81281726 8.86230964 8.81281726 6.6875 12.4375 C4.3889967 14.61175988 2.08116295 16.01593014 -0.625 17.625 C-0.955 18.615 -1.285 19.605 -1.625 20.625 C-3.275 20.625 -4.925 20.625 -6.625 20.625 C-6.955 18.315 -7.285 16.005 -7.625 13.625 C-6.965 13.625 -6.305 13.625 -5.625 13.625 C-5.955 12.305 -6.285 10.985 -6.625 9.625 C-8.275 9.295 -9.925 8.965 -11.625 8.625 C-11.295 7.305 -10.965 5.985 -10.625 4.625 C-9.305 4.295 -7.985 3.965 -6.625 3.625 C-7.945 2.635 -9.265 1.645 -10.625 0.625 C-6.90697837 -0.28084527 -3.8010595 -0.38743582 0 0 Z " fill="#593B15" transform="translate(152.625,119.375)"/>
<path d="M0 0 C3.125 0.375 3.125 0.375 6 1 C6 1.99 6 2.98 6 4 C6.66 4 7.32 4 8 4 C8 3.34 8 2.68 8 2 C9.98 1.67 11.96 1.34 14 1 C13.34 2.32 12.68 3.64 12 5 C13.69769531 4.98259766 13.69769531 4.98259766 15.4296875 4.96484375 C16.91145669 4.95546546 18.39322765 4.9463653 19.875 4.9375 C20.62136719 4.92912109 21.36773437 4.92074219 22.13671875 4.91210938 C27.7734375 4.88671875 27.7734375 4.88671875 30 6 C30 6.99 30 7.98 30 9 C22.575 8.01 22.575 8.01 15 7 C15 7.66 15 8.32 15 9 C15.66 9 16.32 9 17 9 C17.33 10.32 17.66 11.64 18 13 C20.97 13.33 23.94 13.66 27 14 C27 14.99 27 15.98 27 17 C27.66 17.33 28.32 17.66 29 18 C29 19.98 29 21.96 29 24 C27.68 24.33 26.36 24.66 25 25 C23.5393715 22.35261084 23 21.10551666 23 18 C22.154375 18.28875 21.30875 18.5775 20.4375 18.875 C16.60170805 19.01448334 16.19718612 18.74736175 13.4375 16.375 C12.2731129 15.26921444 11.12610853 14.1447439 10 13 C9.175 12.175 8.35 11.35 7.5 10.5 C6.675 9.675 5.85 8.85 5 8 C2.6951674 5.96575571 0.35544082 3.97531204 -2 2 C-1.34 1.34 -0.68 0.68 0 0 Z " fill="#4F320D" transform="translate(100,107)"/>
<path d="M0 0 C-0.99 1.485 -0.99 1.485 -2 3 C-2.66 3 -3.32 3 -4 3 C-3.46390548 9.33818417 -3.46390548 9.33818417 -1 15 C1.94891067 16.03978931 4.92340145 16.49545977 8 17 C8.99 17.33 9.98 17.66 11 18 C11 24.6 11 31.2 11 38 C9.515 38.495 9.515 38.495 8 39 C6.40704748 31.95678017 5.8289345 26.14349955 7 19 C1.39436958 18.17377329 -3.42289352 17.93204344 -9 19 C-8.85761163 16.95809019 -8.71092972 14.91647955 -8.5625 12.875 C-8.48128906 11.73804688 -8.40007812 10.60109375 -8.31640625 9.4296875 C-8.02269035 6.2459522 -7.56875687 3.14489093 -7 0 C-2.25 -1.125 -2.25 -1.125 0 0 Z " fill="#DAA675" transform="translate(75,27)"/>
<path d="M0 0 C1.9375 1.375 1.9375 1.375 3 3 C3 3.99 3 4.98 3 6 C3.99 5.67 4.98 5.34 6 5 C6.33 6.65 6.66 8.3 7 10 C7.66 10 8.32 10 9 10 C9 10.99 9 11.98 9 13 C4.68909818 14.19801827 0.44161166 14.77833957 -4 14 C-5.875 11.625 -5.875 11.625 -7 9 C-7.99 8.34 -8.98 7.68 -10 7 C-10 6.34 -10 5.68 -10 5 C-10.66 5 -11.32 5 -12 5 C-12 4.01 -12 3.02 -12 2 C-7.95484154 -1.43225566 -5.01523217 -1.30024538 0 0 Z " fill="#190D02" transform="translate(79,139)"/>
<path d="M0 0 C0.99 0 1.98 0 3 0 C3 0.66 3 1.32 3 2 C3.99 1.34 4.98 0.68 6 0 C6.99 0 7.98 0 9 0 C8.67 1.32 8.34 2.64 8 4 C8.99 4.33 9.98 4.66 11 5 C10.67 6.98 10.34 8.96 10 11 C7.69 11 5.38 11 3 11 C3.33 12.32 3.66 13.64 4 15 C9.3086849 14.41825155 9.3086849 14.41825155 14 12 C12.63016497 15.16115776 12.0109362 15.9927092 9 18 C6.40625 18.44921875 6.40625 18.44921875 3.5 18.6875 C2.5409375 18.77386719 1.581875 18.86023438 0.59375 18.94921875 C-2 19 -2 19 -5 18 C-5 17.01 -5 16.02 -5 15 C-5.99 15 -6.98 15 -8 15 C-9.93377673 12.09933491 -10.27507614 11.20923972 -10.5625 7.9375 C-10.74586541 4.22018139 -10.74586541 4.22018139 -12 2 C-11.01 2.33 -10.02 2.66 -9 3 C-9 5.64 -9 8.28 -9 11 C-8.34 11 -7.68 11 -7 11 C-7 11.99 -7 12.98 -7 14 C-4.69 13.34 -2.38 12.68 0 12 C0 10.68 0 9.36 0 8 C-1.32 8 -2.64 8 -4 8 C-4 7.34 -4 6.68 -4 6 C-1.69 6 0.62 6 3 6 C2.2575 5.071875 2.2575 5.071875 1.5 4.125 C0 2 0 2 0 0 Z " fill="#B68344" transform="translate(80,64)"/>
<path d="M0 0 C4.875 2.625 4.875 2.625 6 6 C6.99 6 7.98 6 9 6 C9.185625 6.928125 9.37125 7.85625 9.5625 8.8125 C10.69633547 12.25857114 10.69633547 12.25857114 14 13.375 C14.61746094 13.5915625 15.23492187 13.808125 15.87109375 14.03125 C20.45934015 16.11911258 24.16820769 19.77852601 28 23 C28.65097656 23.515625 29.30195312 24.03125 29.97265625 24.5625 C31.35467886 25.66027682 32.68467538 26.8231306 34 28 C34 28.66 34 29.32 34 30 C34.99 30.33 35.98 30.66 37 31 C36.01 31.495 36.01 31.495 35 32 C34.01 31.67 33.02 31.34 32 31 C32 30.01 32 29.02 32 28 C31.01 28 30.02 28 29 28 C28.67 27.34 28.34 26.68 28 26 C27.01 25.67 26.02 25.34 25 25 C24.67 24.01 24.34 23.02 24 22 C22.68 22 21.36 22 20 22 C20 21.01 20 20.02 20 19 C18.73542969 18.90912109 18.73542969 18.90912109 17.4453125 18.81640625 C15.80175781 18.69072266 15.80175781 18.69072266 14.125 18.5625 C13.03445312 18.48128906 11.94390625 18.40007812 10.8203125 18.31640625 C8 18 8 18 6 17 C6 14.69 6 12.38 6 10 C5.01 9.67 4.02 9.34 3 9 C0.75 7.25 0.75 7.25 -1 5 C-0.75 2.25 -0.75 2.25 0 0 Z " fill="#CD9656" transform="translate(76,90)"/>
<path d="M0 0 C6.84562856 4.94406507 9.31105955 9.88705493 10.703125 18.0234375 C10.80109375 18.67570312 10.8990625 19.32796875 11 20 C4.58600917 20.37729358 4.58600917 20.37729358 1.71875 18.53125 C-1.71935906 16.59484375 -4.39044401 16.49577364 -8.3125 16.3125 C-9.56675781 16.24675781 -10.82101563 16.18101562 -12.11328125 16.11328125 C-13.06589844 16.07589844 -14.01851563 16.03851563 -15 16 C-14.01 15.67 -13.02 15.34 -12 15 C-12 14.34 -12 13.68 -12 13 C-4.25 12.875 -4.25 12.875 -2 14 C-1.01 14 -0.02 14 1 14 C1.020625 12.700625 1.04125 11.40125 1.0625 10.0625 C1.07410156 9.33160156 1.08570312 8.60070312 1.09765625 7.84765625 C1.20561184 5.98267859 1.20561184 5.98267859 0 5 C-0.04063832 3.33382885 -0.042721 1.66611905 0 0 Z " fill="#D29B63" transform="translate(113,122)"/>
<path d="M0 0 C0.66 0 1.32 0 2 0 C2 0.99 2 1.98 2 3 C2.66 3 3.32 3 4 3 C4.33 2.34 4.66 1.68 5 1 C5 2.32 5 3.64 5 5 C4.30132812 5.10957031 3.60265625 5.21914062 2.8828125 5.33203125 C1.51769531 5.56986328 1.51769531 5.56986328 0.125 5.8125 C-0.77992187 5.96332031 -1.68484375 6.11414063 -2.6171875 6.26953125 C-5.34412478 6.83051301 -5.34412478 6.83051301 -7 10 C-7.99 10 -8.98 10 -10 10 C-10 10.66 -10 11.32 -10 12 C-11.32 11.67 -12.64 11.34 -14 11 C-14 9.68 -14 8.36 -14 7 C-14.66 7 -15.32 7 -16 7 C-16 6.01 -16 5.02 -16 4 C-17.32 4 -18.64 4 -20 4 C-20 3.34 -20 2.68 -20 2 C-21.31471568 2.28151087 -22.62675767 2.57553339 -23.9375 2.875 C-24.66839844 3.03742188 -25.39929688 3.19984375 -26.15234375 3.3671875 C-28.20700294 3.82961523 -28.20700294 3.82961523 -29 6 C-31.06640625 6.4140625 -31.06640625 6.4140625 -33.5625 6.625 C-34.38878906 6.69976562 -35.21507813 6.77453125 -36.06640625 6.8515625 C-37.02353516 6.92503906 -37.02353516 6.92503906 -38 7 C-30.94946698 0.83078361 -23.37003118 0.65599611 -14.48828125 0.6015625 C-10.79383608 1.0235484 -9.04593452 1.97111553 -6 4 C-2.30476048 4.71923208 -2.30476048 4.71923208 1 5 C0.505 2.525 0.505 2.525 0 0 Z " fill="#5F3C17" transform="translate(123,137)"/>
<path d="M0 0 C0.94875 0.350625 1.8975 0.70125 2.875 1.0625 C2.545 3.3725 2.215 5.6825 1.875 8.0625 C2.535 8.3925 3.195 8.7225 3.875 9.0625 C3.545 10.0525 3.215 11.0425 2.875 12.0625 C4.195 12.7225 5.515 13.3825 6.875 14.0625 C6.875 14.7225 6.875 15.3825 6.875 16.0625 C5.885 16.0625 4.895 16.0625 3.875 16.0625 C4.205 18.7025 4.535 21.3425 4.875 24.0625 C3.4143715 21.41511084 2.875 20.16801666 2.875 17.0625 C2.215 17.0625 1.555 17.0625 0.875 17.0625 C0.2253125 15.6703125 0.2253125 15.6703125 -0.4375 14.25 C-2.59110641 10.18207679 -3.75894185 8.51785272 -8.125 7.0625 C-8.455 5.4125 -8.785 3.7625 -9.125 2.0625 C-3.125 -0.9375 -3.125 -0.9375 0 0 Z " fill="#4A300E" transform="translate(94.125,16.9375)"/>
<path d="M0 0 C0.66 0 1.32 0 2 0 C1.50873071 6.36559573 1.00344253 12.69264693 0 19 C1.0209375 18.7525 1.0209375 18.7525 2.0625 18.5 C5.4164822 17.92910941 8.60389805 17.93340977 12 18 C12.33 18.99 12.66 19.98 13 21 C12.34 21 11.68 21 11 21 C11 21.99 11 22.98 11 24 C7.91111478 26.05925681 7.29064073 26.2390374 3.8125 26.125 C2.554375 26.08375 1.29625 26.0425 0 26 C0 28.31 0 30.62 0 33 C-0.33 33 -0.66 33 -1 33 C-1.02465392 28.46102295 -1.04283789 23.92208457 -1.05493164 19.38305664 C-1.0599714 17.83780234 -1.0668032 16.29255284 -1.07543945 14.74731445 C-1.08752076 12.53074971 -1.09323173 10.31424782 -1.09765625 8.09765625 C-1.10281754 7.4028566 -1.10797882 6.70805695 -1.11329651 5.99220276 C-1.11349277 4.3277067 -1.06189129 2.66334501 -1 1 C-0.67 0.67 -0.34 0.34 0 0 Z " fill="#8C602E" transform="translate(66,27)"/>
<path d="M0 0 C0.66 0 1.32 0 2 0 C2.18603535 4.0927776 1.84865614 6.41143221 0 10 C-0.34541851 12.33157492 -0.67794257 14.66508361 -1 17 C-1.62256028 19.01416562 -2.27566653 21.02015519 -3 23 C-3.33 23 -3.66 23 -4 23 C-4.33 20.36 -4.66 17.72 -5 15 C-7.64 14.34 -10.28 13.68 -13 13 C-13 12.01 -13 11.02 -13 10 C-13.66 10 -14.32 10 -15 10 C-14.67 9.01 -14.34 8.02 -14 7 C-10.05272412 6.82057837 -7.4019487 6.90649311 -4 9 C-4 7.68 -4 6.36 -4 5 C-3.01 5 -2.02 5 -1 5 C-0.67 3.35 -0.34 1.7 0 0 Z " fill="#694312" transform="translate(103,38)"/>
<path d="M0 0 C2.64 0 5.28 0 8 0 C7.67 1.32 7.34 2.64 7 4 C7.52078125 3.83628906 8.0415625 3.67257813 8.578125 3.50390625 C11.6756875 2.85941341 14.58841094 2.90588411 17.75 2.9375 C19.50570312 2.95103516 19.50570312 2.95103516 21.296875 2.96484375 C22.18890625 2.97644531 23.0809375 2.98804688 24 3 C23.01 3.33 22.02 3.66 21 4 C21 4.66 21 5.32 21 6 C21.99 6.33 22.98 6.66 24 7 C22.37750059 7.83819158 20.75191503 8.6704116 19.125 9.5 C18.22007813 9.9640625 17.31515625 10.428125 16.3828125 10.90625 C14 12 14 12 12 12 C12 11.01 12 10.02 12 9 C11.01 8.67 10.02 8.34 9 8 C9 7.34 9 6.68 9 6 C8.360625 5.896875 7.72125 5.79375 7.0625 5.6875 C6.381875 5.460625 5.70125 5.23375 5 5 C4.67 4.01 4.34 3.02 4 2 C1.98491642 1.26676204 1.98491642 1.26676204 0 1 C0 0.67 0 0.34 0 0 Z " fill="#CA9F68" transform="translate(70,133)"/>
<path d="M0 0 C0.125 6.75 0.125 6.75 -1 9 C-0.01 8.67 0.98 8.34 2 8 C2.72795155 12.20594226 3.04973814 14.80104745 2 19 C-1.96 19 -5.92 19 -10 19 C-9.67 18.34 -9.34 17.68 -9 17 C-8.34 17 -7.68 17 -7 17 C-6.67 16.01 -6.34 15.02 -6 14 C-5.34 13.67 -4.68 13.34 -4 13 C-4.03480469 12.39671875 -4.06960937 11.7934375 -4.10546875 11.171875 C-4.3285497 4.58567555 -4.3285497 4.58567555 -2.5625 1.4375 C-1 0 -1 0 0 0 Z " fill="#201002" transform="translate(61,45)"/>
<path d="M0 0 C1.43859375 -0.02126953 1.43859375 -0.02126953 2.90625 -0.04296875 C5.5 0.1875 5.5 0.1875 8.5 2.1875 C8.6875 4.8125 8.6875 4.8125 8.5 7.1875 C7.54738281 7.1153125 6.59476563 7.043125 5.61328125 6.96875 C4.35902344 6.8759375 3.10476562 6.783125 1.8125 6.6875 C0.57113281 6.5946875 -0.67023438 6.501875 -1.94921875 6.40625 C-4.81499329 6.22970063 -7.63099957 6.14361472 -10.5 6.1875 C-9.6875 3.75 -9.6875 3.75 -8.5 1.1875 C-5.43301363 0.16517121 -3.21335122 0.0215951 0 0 Z " fill="#443013" transform="translate(152.5,113.8125)"/>
<path d="M0 0 C1.32 0 2.64 0 4 0 C4 0.99 4 1.98 4 3 C4.8353125 3.3403125 4.8353125 3.3403125 5.6875 3.6875 C8.63246684 5.35896766 10.68156544 7.55276352 13 10 C12.34 11.32 11.68 12.64 11 14 C7.625 14.1875 7.625 14.1875 4 14 C1.90284215 10.85426323 1.47995441 8.98543749 0.875 5.3125 C0.70742187 4.31863281 0.53984375 3.32476562 0.3671875 2.30078125 C0.24601562 1.54152344 0.12484375 0.78226563 0 0 Z " fill="#3A2109" transform="translate(126,152)"/>
<path d="M0 0 C4.26279912 4.26279912 4.34505034 10.29258157 5 16 C5.33 16.99 5.66 17.98 6 19 C6.99 19 7.98 19 9 19 C8.67 19.66 8.34 20.32 8 21 C7.01 20.67 6.02 20.34 5 20 C5.99 21.32 6.98 22.64 8 24 C7.67 24.66 7.34 25.32 7 26 C6.01 25.34 5.02 24.68 4 24 C4 22.68 4 21.36 4 20 C2.02 20 0.04 20 -2 20 C-2 19.01 -2 18.02 -2 17 C-1.34 17 -0.68 17 0 17 C0 11.39 0 5.78 0 0 Z " fill="#885C27" transform="translate(66,60)"/>
<path d="M0 0 C0.66 0.33 1.32 0.66 2 1 C2 6.61 2 12.22 2 18 C-0.5654594 15.4345406 -0.54046087 13.52313332 -1 10 C-1.61875 10.495 -2.2375 10.99 -2.875 11.5 C-5 13 -5 13 -7 13 C-7.33 13.99 -7.66 14.98 -8 16 C-8 15.34 -8 14.68 -8 14 C-9.32 14 -10.64 14 -12 14 C-12 13.34 -12 12.68 -12 12 C-10.68 12 -9.36 12 -8 12 C-7.95875 11.4225 -7.9175 10.845 -7.875 10.25 C-6.57888789 6.9171403 -3.91804782 5.94536521 -1 4 C-0.04768403 1.87880872 -0.04768403 1.87880872 0 0 Z " fill="#4A300C" transform="translate(159,128)"/>
<path d="M0 0 C4.875 1.75 4.875 1.75 6 4 C7.88764903 4.68472665 7.88764903 4.68472665 10.0625 5.125 C10.79597656 5.29257813 11.52945313 5.46015625 12.28515625 5.6328125 C12.85105469 5.75398438 13.41695312 5.87515625 14 6 C14.020625 7.03125 14.04125 8.0625 14.0625 9.125 C15.30101568 14.24419815 17.83740574 16.0329289 22 19 C21.67 19.66 21.34 20.32 21 21 C20.34 20.34 19.68 19.68 19 19 C18.01 18.67 17.02 18.34 16 18 C13 17 13 17 11 15 C10.875 12.375 10.875 12.375 11 10 C10.01 10 9.02 10 8 10 C5.5 7.6875 5.5 7.6875 3 5 C2.401875 4.443125 1.80375 3.88625 1.1875 3.3125 C0 2 0 2 0 0 Z " fill="#8E6029" transform="translate(74,86)"/>
<path d="M0 0 C0 1.32 0 2.64 0 4 C0.928125 4.37125 0.928125 4.37125 1.875 4.75 C4.35068687 6.20628639 4.95125002 7.37812506 6 10 C2.63983107 8.87994369 1.30935087 7.62788203 -1 5 C-1 4.34 -1 3.68 -1 3 C-2.32 3.33 -3.64 3.66 -5 4 C-5.33 5.32 -5.66 6.64 -6 8 C-11.94 7.01 -11.94 7.01 -18 6 C-15.07790776 4.05193851 -12.15039284 2.54304955 -9 1 C-8.319375 0.5875 -7.63875 0.175 -6.9375 -0.25 C-4.33981665 -1.25555484 -2.63516836 -0.73199121 0 0 Z " fill="#C38B4E" transform="translate(70,80)"/>
<path d="M0 0 C6.13053511 -0.32712342 10.62669111 -0.39366878 16 3 C16 3.99 16 4.98 16 6 C7.57142857 7.28571429 7.57142857 7.28571429 3 6 C2.67 4.68 2.34 3.36 2 2 C1.34 2 0.68 2 0 2 C0 1.34 0 0.68 0 0 Z " fill="#59391E" transform="translate(115,114)"/>
<path d="M0 0 C0.99 0 1.98 0 3 0 C3.33 1.65 3.66 3.3 4 5 C4.66 5 5.32 5 6 5 C7.125 10.75 7.125 10.75 6 13 C9.465 12.505 9.465 12.505 13 12 C13.625 13.875 13.625 13.875 14 16 C12 18 12 18 8.875 18.125 C7.451875 18.063125 7.451875 18.063125 6 18 C6 17.01 6 16.02 6 15 C5.34 15 4.68 15 4 15 C3.8046875 12.94921875 3.609375 10.8984375 3.4140625 8.84765625 C3.20910156 7.93306641 3.20910156 7.93306641 3 7 C2.34 6.67 1.68 6.34 1 6 C0.375 2.9375 0.375 2.9375 0 0 Z " fill="#CF9656" transform="translate(67,60)"/>
<path d="M0 0 C-0.99 1.485 -0.99 1.485 -2 3 C-2.66 3 -3.32 3 -4 3 C-3.814375 4.258125 -3.62875 5.51625 -3.4375 6.8125 C-2.99267239 9.82744268 -3.00156154 11.00468461 -4 14 C-4.66 14 -5.32 14 -6 14 C-6 15.32 -6 16.64 -6 18 C-5.34 18.33 -4.68 18.66 -4 19 C-5.65 19 -7.3 19 -9 19 C-8.85761163 16.95809019 -8.71092972 14.91647955 -8.5625 12.875 C-8.48128906 11.73804688 -8.40007812 10.60109375 -8.31640625 9.4296875 C-8.02269035 6.2459522 -7.56875687 3.14489093 -7 0 C-2.25 -1.125 -2.25 -1.125 0 0 Z " fill="#C1985D" transform="translate(75,27)"/>
<path d="M0 0 C2.3125 0.1875 2.3125 0.1875 5 1 C6.8125 3.5625 6.8125 3.5625 8 6 C7.34 6 6.68 6 6 6 C6 7.98 6 9.96 6 12 C3.03 12 0.06 12 -3 12 C-3 9.69 -3 7.38 -3 5 C-2.01 6.32 -1.02 7.64 0 9 C0 6.03 0 3.06 0 0 Z " fill="#241204" transform="translate(70,154)"/>
<path d="M0 0 C0.33 0.66 0.66 1.32 1 2 C0.01 2.66 -0.98 3.32 -2 4 C-2.79309904 5.81537599 -2.79309904 5.81537599 -3.1875 7.875 C-3.34605469 8.55304688 -3.50460937 9.23109375 -3.66796875 9.9296875 C-4.10556919 12.30879352 -4.10556919 12.30879352 -4 16 C-3.01 16.33 -2.02 16.66 -1 17 C-4.96 16.67 -8.92 16.34 -13 16 C-11.15602643 11.39006609 -9.76664529 9.29240106 -6.5 5.75 C-5.7059375 4.87859375 -4.911875 4.0071875 -4.09375 3.109375 C-2 1 -2 1 0 0 Z " fill="#966E48" transform="translate(15,105)"/>
<path d="M0 0 C2.85231222 4.27846832 2.60225696 7.895631 3 13 C-0.3 12.67 -3.6 12.34 -7 12 C-7.33 12.66 -7.66 13.32 -8 14 C-7.34 14 -6.68 14 -6 14 C-6 14.99 -6 15.98 -6 17 C-5.05125 16.95875 -4.1025 16.9175 -3.125 16.875 C0 17 0 17 2 19 C-1.96 18.67 -5.92 18.34 -10 18 C-11 14 -11 14 -9.5625 11.25 C-6.77184325 8.79966725 -6.2600012 8.68126554 -2.75 8.6875 C-0.89375 8.8421875 -0.89375 8.8421875 1 9 C0.67 6.03 0.34 3.06 0 0 Z " fill="#B68754" transform="translate(96,34)"/>
<path d="M0 0 C-0.639375 0.598125 -1.27875 1.19625 -1.9375 1.8125 C-4.20310389 3.90810337 -4.20310389 3.90810337 -5 7 C1.93 7.99 8.86 8.98 16 10 C16 10.33 16 10.66 16 11 C8.08 11 0.16 11 -8 11 C-8 7.37 -8 3.74 -8 0 C-2.25 -1.125 -2.25 -1.125 0 0 Z " fill="#583413" transform="translate(8,113)"/>
<path d="M0 0 C0.66 0 1.32 0 2 0 C2 1.98 2 3.96 2 6 C2.66 6.33 3.32 6.66 4 7 C3.34 8.32 2.68 9.64 2 11 C1.34 11 0.68 11 0 11 C0 11.66 0 12.32 0 13 C-0.66 13 -1.32 13 -2 13 C-2 12.34 -2 11.68 -2 11 C-3.65 11 -5.3 11 -7 11 C-6.6875 9.0625 -6.6875 9.0625 -6 7 C-5.01 6.67 -4.02 6.34 -3 6 C-2.26676204 3.98491642 -2.26676204 3.98491642 -2 2 C-1.34 2 -0.68 2 0 2 C0 1.34 0 0.68 0 0 Z " fill="#D3A675" transform="translate(19,101)"/>
<path d="M0 0 C4.37497558 3.46980822 5.72097863 7.7385712 7 13 C7 13.99 7 14.98 7 16 C1.97745369 16.2954439 -0.89542386 15.98514628 -5 13 C-3 12 -3 12 0 11 C0 10.34 0 9.68 0 9 C0.99 9 1.98 9 3 9 C2.67 7.35 2.34 5.7 2 4 C1.34 4 0.68 4 0 4 C0 2.68 0 1.36 0 0 Z " fill="#B07D49" transform="translate(117,126)"/>
<path d="M0 0 C-0.99 1.485 -0.99 1.485 -2 3 C-0.30230469 2.98259766 -0.30230469 2.98259766 1.4296875 2.96484375 C2.91145669 2.95546546 4.39322765 2.9463653 5.875 2.9375 C6.62136719 2.92912109 7.36773437 2.92074219 8.13671875 2.91210938 C13.7734375 2.88671875 13.7734375 2.88671875 16 4 C16 4.99 16 5.98 16 7 C8.575 6.01 8.575 6.01 1 5 C1 5.66 1 6.32 1 7 C1.66 7.33 2.32 7.66 3 8 C2.01 8.33 1.02 8.66 0 9 C-0.33 8.01 -0.66 7.02 -1 6 C-2.65 5.67 -4.3 5.34 -6 5 C-6 3.35 -6 1.7 -6 0 C-3.50907189 -1.24546405 -2.58919267 -0.7767578 0 0 Z " fill="#4B2F19" transform="translate(114,109)"/>
<path d="M0 0 C3.23490776 0.55774272 4.97855006 1.37211508 7 4 C7 4.99 7 5.98 7 7 C7.99 6.67 8.98 6.34 10 6 C10.33 7.65 10.66 9.3 11 11 C11.66 11 12.32 11 13 11 C13 11.99 13 12.98 13 14 C11.0085944 14.38133299 9.00720923 14.71325582 7 15 C6 14 6 14 5.90234375 12.15234375 C5.93489583 10.1015625 5.96744792 8.05078125 6 6 C4.35 5.67 2.7 5.34 1 5 C0.67 3.35 0.34 1.7 0 0 Z " fill="#312215" transform="translate(75,138)"/>
<path d="M0 0 C4.33395783 0.52532822 6.61955147 1.96145558 9.9375 4.75 C10.79988281 5.46929687 11.66226563 6.18859375 12.55078125 6.9296875 C13.35902344 7.61289063 14.16726562 8.29609375 15 9 C15.65355469 9.51820312 16.30710937 10.03640625 16.98046875 10.5703125 C18.3602729 11.66497898 19.68741144 12.82557866 21 14 C21 14.66 21 15.32 21 16 C21.99 16.33 22.98 16.66 24 17 C23.34 17.33 22.68 17.66 22 18 C21.01 17.67 20.02 17.34 19 17 C19 16.01 19 15.02 19 14 C18.01 14 17.02 14 16 14 C15.67 13.34 15.34 12.68 15 12 C14.01 11.67 13.02 11.34 12 11 C11.67 10.01 11.34 9.02 11 8 C9.68 8 8.36 8 7 8 C7 7.01 7 6.02 7 5 C4.03 4.505 4.03 4.505 1 4 C1.33 3.01 1.66 2.02 2 1 C1.34 0.67 0.68 0.34 0 0 Z " fill="#AB854B" transform="translate(89,104)"/>
<path d="M0 0 C1.32 0 2.64 0 4 0 C4 0.99 4 1.98 4 3 C4.66 3 5.32 3 6 3 C5.67 12.24 5.34 21.48 5 31 C4.67 31 4.34 31 4 31 C4 28.69 4 26.38 4 24 C3.34 24 2.68 24 2 24 C2 22.68 2 21.36 2 20 C2.66 20 3.32 20 4 20 C3.67 15.05 3.34 10.1 3 5 C1.35 5 -0.3 5 -2 5 C-1.34 3.35 -0.68 1.7 0 0 Z " fill="#372009" transform="translate(60,27)"/>
<path d="M0 0 C1.65 0.33 3.3 0.66 5 1 C5 2.32 5 3.64 5 5 C5.639375 5.12375 6.27875 5.2475 6.9375 5.375 C7.618125 5.58125 8.29875 5.7875 9 6 C9.33 6.66 9.66 7.32 10 8 C9.030625 7.835 8.06125 7.67 7.0625 7.5 C2.70512237 6.86603727 -1.60630704 6.9103328 -6 7 C-6.33 5.68 -6.66 4.36 -7 3 C-4.69 3 -2.38 3 0 3 C0 2.01 0 1.02 0 0 Z " fill="#AC8349" transform="translate(81,19)"/>
<path d="M0 0 C3.31152874 -0.36794764 4.60609252 -0.29809215 7.3125 1.75 C9 4 9 4 9 8 C8.34 8 7.68 8 7 8 C7 7.01 7 6.02 7 5 C6.01 5 5.02 5 4 5 C4.33 7.64 4.66 10.28 5 13 C4.01 12.67 3.02 12.34 2 12 C0.19204568 7.9083139 -0.21156222 4.44280672 0 0 Z " fill="#413217" transform="translate(64,144)"/>
<path d="M0 0 C0.99 0 1.98 0 3 0 C3.3125 2.25 3.3125 2.25 3 5 C0.51252377 7.62961773 -1.09492996 8.85266302 -4.6875 9.4375 C-5.8321875 9.2209375 -5.8321875 9.2209375 -7 9 C-7.66 8.01 -8.32 7.02 -9 6 C-8.67 5.34 -8.34 4.68 -8 4 C-5.69 4 -3.38 4 -1 4 C-0.67 2.68 -0.34 1.36 0 0 Z " fill="#D09B60" transform="translate(91,71)"/>
<path d="M0 0 C2.86618213 -0.4409511 4.36655047 -0.41501866 6.8125 1.1875 C8.36678206 3.55982525 8.22537188 5.22041345 8 8 C7.79375 7.360625 7.5875 6.72125 7.375 6.0625 C6.10461791 3.65074923 6.10461791 3.65074923 2.875 3.25 C1.92625 3.1675 0.9775 3.085 0 3 C0 3.66 0 4.32 0 5 C-1.32 5 -2.64 5 -4 5 C-4.33 6.32 -4.66 7.64 -5 9 C-8 7.25 -8 7.25 -11 5 C-11 3.68 -11 2.36 -11 1 C-10.34 1 -9.68 1 -9 1 C-8.896875 1.639375 -8.79375 2.27875 -8.6875 2.9375 C-8.460625 3.618125 -8.23375 4.29875 -8 5 C-7.01 5.33 -6.02 5.66 -5 6 C-5.33 4.68 -5.66 3.36 -6 2 C-4.68 2.33 -3.36 2.66 -2 3 C-1.34 2.01 -0.68 1.02 0 0 Z " fill="#332008" transform="translate(118,143)"/>
<path d="M0 0 C0.66 2.31 1.32 4.62 2 7 C-1.75 8.125 -1.75 8.125 -4 7 C-4.33 7.66 -4.66 8.32 -5 9 C-5.33 8.01 -5.66 7.02 -6 6 C-6.66 6 -7.32 6 -8 6 C-8 5.01 -8 4.02 -8 3 C-5.11165997 0.89229241 -3.61537605 0 0 0 Z " fill="#231205" transform="translate(75,138)"/>
<path d="M0 0 C0.99 0 1.98 0 3 0 C3 0.66 3 1.32 3 2 C3.99 1.34 4.98 0.68 6 0 C6.99 0 7.98 0 9 0 C8.67 1.32 8.34 2.64 8 4 C8.99 4.33 9.98 4.66 11 5 C11 5.66 11 6.32 11 7 C9.41870971 7.22331199 7.83478911 7.42804644 6.25 7.625 C4.92742187 7.79902344 4.92742187 7.79902344 3.578125 7.9765625 C0.77140122 8.00207817 -0.63384866 7.44843844 -3 6 C-1.02 6 0.96 6 3 6 C2.2575 5.071875 2.2575 5.071875 1.5 4.125 C0 2 0 2 0 0 Z " fill="#A67038" transform="translate(80,64)"/>
<path d="M0 0 C0 0.66 0 1.32 0 2 C1.32 2.33 2.64 2.66 4 3 C3.67 3.99 3.34 4.98 3 6 C2.34 6 1.68 6 1 6 C1.33 7.98 1.66 9.96 2 12 C0.68 12 -0.64 12 -2 12 C-2.33 9.03 -2.66 6.06 -3 3 C-3.66 3 -4.32 3 -5 3 C-5 2.34 -5 1.68 -5 1 C-3 0 -3 0 0 0 Z " fill="#D6A163" transform="translate(92,52)"/>
<path d="M0 0 C2.31 0 4.62 0 7 0 C7.33 0.99 7.66 1.98 8 3 C7.34 3 6.68 3 6 3 C6 3.99 6 4.98 6 6 C3.04335481 7.4783226 0.25770263 7.06032783 -3 7 C-2.67 6.01 -2.34 5.02 -2 4 C-1.34 4 -0.68 4 0 4 C0 2.68 0 1.36 0 0 Z " fill="#835222" transform="translate(71,45)"/>
<path d="M0 0 C-3.89071844 2.59381229 -6.36166385 2.63187808 -11 3 C-11.66 2.67 -12.32 2.34 -13 2 C-12.67 2.99 -12.34 3.98 -12 5 C-12.61875 5.2475 -13.2375 5.495 -13.875 5.75 C-16.35068687 7.20628639 -16.95125002 8.37812506 -18 11 C-18.47774481 4.78931751 -18.47774481 4.78931751 -16.5625 1.625 C-11.62319967 -1.50723924 -5.56078797 -1.61442231 0 0 Z " fill="#DAAF74" transform="translate(89,26)"/>
<path d="M0 0 C0.51046875 0.48726562 1.0209375 0.97453125 1.546875 1.4765625 C-2.18437567 2.66265543 -4.47382347 1.94025917 -8.21875 0.8984375 C-11.96612955 0.19089031 -15.77413917 0.47832564 -19.453125 1.4765625 C-19.783125 2.1365625 -20.113125 2.7965625 -20.453125 3.4765625 C-22.51953125 3.890625 -22.51953125 3.890625 -25.015625 4.1015625 C-25.84191406 4.17632812 -26.66820313 4.25109375 -27.51953125 4.328125 C-28.47666016 4.40160156 -28.47666016 4.40160156 -29.453125 4.4765625 C-22.49896231 -1.60832985 -8.30517969 -5.15767529 0 0 Z " fill="#724D20" transform="translate(114.453125,139.5234375)"/>
<path d="M0 0 C-0.3125 1.9375 -0.3125 1.9375 -1 4 C-1.99 4.33 -2.98 4.66 -4 5 C-4.680625 5.350625 -5.36125 5.70125 -6.0625 6.0625 C-8 7 -8 7 -10 7 C-10 6.01 -10 5.02 -10 4 C-10.99 3.67 -11.98 3.34 -13 3 C-8.51925805 -0.36055646 -5.39449293 -0.27429625 0 0 Z " fill="#C39467" transform="translate(34,97)"/>
<path d="M0 0 C0.85658203 0.22623047 0.85658203 0.22623047 1.73046875 0.45703125 C8.33947982 2.0381888 13.57136003 2.32525275 20 0 C19.67 1.32 19.34 2.64 19 4 C17.39679026 4.19551338 15.79237014 4.38111983 14.1875 4.5625 C13.29417969 4.66691406 12.40085937 4.77132812 11.48046875 4.87890625 C9 5 9 5 6 4 C5.67 5.32 5.34 6.64 5 8 C0 2.25 0 2.25 0 0 Z " fill="#734918" transform="translate(71,80)"/>
<path d="M0 0 C2.0625 0.4375 2.0625 0.4375 4 1 C5.67357513 6.37305699 5.67357513 6.37305699 6 9 C4.625 11 4.625 11 3 12 C2.67 10.68 2.34 9.36 2 8 C0.68 7.67 -0.64 7.34 -2 7 C-1.125 1.125 -1.125 1.125 0 0 Z " fill="#D1A467" transform="translate(109,121)"/>
<path d="M0 0 C0.33 0 0.66 0 1 0 C1.05447047 1.41623216 1.09300508 2.83308191 1.125 4.25 C1.14820312 5.03890625 1.17140625 5.8278125 1.1953125 6.640625 C0.97888991 9.25500994 0.20592981 10.69454595 -1 13 C-1.42663286 14.73813388 -1.80076859 16.48988665 -2.125 18.25 C-2.29257813 19.14203125 -2.46015625 20.0340625 -2.6328125 20.953125 C-2.75398438 21.62859375 -2.87515625 22.3040625 -3 23 C-3.33 23 -3.66 23 -4 23 C-4 21.35 -4 19.7 -4 18 C-4.99 17.67 -5.98 17.34 -7 17 C-6.34 16.67 -5.68 16.34 -5 16 C-5 15.01 -5 14.02 -5 13 C-4.34 13 -3.68 13 -3 13 C-2.67 10.69 -2.34 8.38 -2 6 C-1.34 6 -0.68 6 0 6 C0 4.02 0 2.04 0 0 Z " fill="#B08146" transform="translate(98,53)"/>
<path d="M0 0 C0.66 0.33 1.32 0.66 2 1 C0.25 4.875 0.25 4.875 -2 6 C-3.13350534 8.01669827 -3.13350534 8.01669827 -4 10 C-5.32 9.34 -6.64 8.68 -8 8 C-8 7.01 -8 6.02 -8 5 C-9.98 5 -11.96 5 -14 5 C-14.33 4.34 -14.66 3.68 -15 3 C-11.04 3.33 -7.08 3.66 -3 4 C-2.67 3.01 -2.34 2.02 -2 1 C-1.34 0.67 -0.68 0.34 0 0 Z " fill="#CE9759" transform="translate(67,83)"/>
<path d="M0 0 C0 2.31 0 4.62 0 7 C-0.66 7 -1.32 7 -2 7 C-2 7.99 -2 8.98 -2 10 C-1.34 10 -0.68 10 0 10 C0 10.66 0 11.32 0 12 C-1.65 12 -3.3 12 -5 12 C-5 8.33333333 -5 4.66666667 -5 1 C-1.125 0 -1.125 0 0 0 Z " fill="#352317" transform="translate(81,154)"/>
<path d="M0 0 C0.66 0.99 1.32 1.98 2 3 C0.68 5.31 -0.64 7.62 -2 10 C-2.66 9.34 -3.32 8.68 -4 8 C-4.33 9.98 -4.66 11.96 -5 14 C-5.33 14 -5.66 14 -6 14 C-6 10.37 -6 6.74 -6 3 C-5.34 3 -4.68 3 -4 3 C-4 2.34 -4 1.68 -4 1 C-2.68 0.67 -1.36 0.34 0 0 Z " fill="#41270A" transform="translate(95,86)"/>
<path d="M0 0 C0 0.66 0 1.32 0 2 C1.32 2 2.64 2 4 2 C4 2.99 4 3.98 4 5 C-0.29 4.67 -4.58 4.34 -9 4 C-8.67 3.01 -8.34 2.02 -8 1 C-5.07175348 0.02391783 -3.04386724 -0.08226668 0 0 Z " fill="#2E1602" transform="translate(103,139)"/>
<path d="M0 0 C0.66 0 1.32 0 2 0 C2.18603535 4.0927776 1.84865614 6.41143221 0 10 C-0.165 11.216875 -0.33 12.43375 -0.5 13.6875 C-0.665 14.780625 -0.83 15.87375 -1 17 C-1.66 17.33 -2.32 17.66 -3 18 C-3 13.71 -3 9.42 -3 5 C-2.34 5 -1.68 5 -1 5 C-0.67 3.35 -0.34 1.7 0 0 Z " fill="#46321A" transform="translate(103,38)"/>
<path d="M0 0 C2.3431213 0.25561323 4.67843403 0.59270772 7 1 C7.33 1.66 7.66 2.32 8 3 C8.99 3.33 9.98 3.66 11 4 C11.33 4.99 11.66 5.98 12 7 C10.35 7.66 8.7 8.32 7 9 C6.34 8.34 5.68 7.68 5 7 C5 6.01 5 5.02 5 4 C4.360625 3.896875 3.72125 3.79375 3.0625 3.6875 C2.381875 3.460625 1.70125 3.23375 1 3 C0.67 2.01 0.34 1.02 0 0 Z " fill="#3F230A" transform="translate(63,131)"/>
<path d="M0 0 C0.99 0.33 1.98 0.66 3 1 C2.34 1 1.68 1 1 1 C1.33 2.32 1.66 3.64 2 5 C-0.31 5 -2.62 5 -5 5 C-5 5.99 -5 6.98 -5 8 C-7.31 8.33 -9.62 8.66 -12 9 C-11.34 8.34 -10.68 7.68 -10 7 C-11.32 6.67 -12.64 6.34 -14 6 C-9.03006806 3.56574762 -5.65394631 2.65384002 0 3 C0 2.01 0 1.02 0 0 Z " fill="#7A5825" transform="translate(80,18)"/>
<path d="M0 0 C0.99 0.495 0.99 0.495 2 1 C2 1.66 2 2.32 2 3 C2.99 3 3.98 3 5 3 C5 3.99 5 4.98 5 6 C5.66 6.33 6.32 6.66 7 7 C6.34 8.65 5.68 10.3 5 12 C4.34 12 3.68 12 3 12 C0.97649676 8.96474514 0.67875982 7.80573798 0.375 4.3125 C0.30023438 3.50425781 0.22546875 2.69601563 0.1484375 1.86328125 C0.09945312 1.24839844 0.05046875 0.63351563 0 0 Z " fill="#33200D" transform="translate(127,154)"/>
<path d="M0 0 C2.91747073 0.1140575 5.83344495 0.24080268 8.75 0.375 C9.9875 0.42140625 9.9875 0.42140625 11.25 0.46875 C12.04921875 0.50742188 12.8484375 0.54609375 13.671875 0.5859375 C14.4050293 0.6173584 15.13818359 0.6487793 15.89355469 0.68115234 C18 1 18 1 22 3 C16.555 2.505 16.555 2.505 11 2 C11 2.66 11 3.32 11 4 C3.13671875 3.35546875 3.13671875 3.35546875 0 0 Z " fill="#391E0B" transform="translate(10,123)"/>
<path d="M0 0 C1.32 0 2.64 0 4 0 C4 1.98 4 3.96 4 6 C5.0828125 5.8453125 5.0828125 5.8453125 6.1875 5.6875 C10.12041589 6.12449065 11.46321923 8.10082197 14 11 C13.67 11.66 13.34 12.32 13 13 C12.34 12.34 11.68 11.68 11 11 C10.01 10.67 9.02 10.34 8 10 C5 9 5 9 3 7 C2.875 4.375 2.875 4.375 3 2 C2.01 2 1.02 2 0 2 C0 1.34 0 0.68 0 0 Z " fill="#AE773C" transform="translate(82,94)"/>
<path d="M0 0 C3.3 0.33 6.6 0.66 10 1 C9.67 2.65 9.34 4.3 9 6 C5.37471432 6.20140476 3.13498292 5.85776765 0 4 C0 2.68 0 1.36 0 0 Z " fill="#573410" transform="translate(77,84)"/>
<path d="M0 0 C2.1875 -0.3125 2.1875 -0.3125 5 0 C7.625 2.4375 7.625 2.4375 10 5 C10.99 5.33 11.98 5.66 13 6 C12.67 6.66 12.34 7.32 12 8 C9.8125 8.3125 9.8125 8.3125 7 8 C4.12425455 5.52552136 2.10382653 3.1557398 0 0 Z " fill="#291602" transform="translate(56,129)"/>
<path d="M0 0 C0.91058531 3.07322544 1.08886184 5.80097361 1 9 C1.66 9.33 2.32 9.66 3 10 C2.34 11.65 1.68 13.3 1 15 C-0.32 14.67 -1.64 14.34 -3 14 C-2.88512252 12.41590006 -2.75765492 10.83271037 -2.625 9.25 C-2.55539063 8.36828125 -2.48578125 7.4865625 -2.4140625 6.578125 C-2.00149945 4.00933618 -1.28839043 2.24158985 0 0 Z " fill="#583617" transform="translate(98,62)"/>
<path d="M0 0 C0.66 0 1.32 0 2 0 C4.20914 3.31371 4.22481553 4.3446021 4.125 8.1875 C4.10695313 9.08855469 4.08890625 9.98960938 4.0703125 10.91796875 C4.03550781 11.94857422 4.03550781 11.94857422 4 13 C3.01 13 2.02 13 1 13 C1 10.36 1 7.72 1 5 C0.01 4.67 -0.98 4.34 -2 4 C-1.34 4 -0.68 4 0 4 C0 2.68 0 1.36 0 0 Z " fill="#D5A872" transform="translate(89,27)"/>
<path d="M0 0 C2.79256219 0.11361602 5.58344118 0.2403589 8.375 0.375 C9.1690625 0.4059375 9.963125 0.436875 10.78125 0.46875 C16.7734375 0.7734375 16.7734375 0.7734375 19 3 C16.95863605 3.05451714 14.91684144 3.09302485 12.875 3.125 C11.16957031 3.15980469 11.16957031 3.15980469 9.4296875 3.1953125 C5.94242233 2.99672109 3.2446138 2.2524801 0 1 C0 0.67 0 0.34 0 0 Z " fill="#4B2D0F" transform="translate(40,126)"/>
<path d="M0 0 C2 1.375 2 1.375 4 3 C4 3.66 4 4.32 4 5 C4.99 5 5.98 5 7 5 C9 10.625 9 10.625 9 14 C8.01 13.67 7.02 13.34 6 13 C5.67 11.02 5.34 9.04 5 7 C4.01 7 3.02 7 2 7 C1.34 4.69 0.68 2.38 0 0 Z " fill="#C18947" transform="translate(78,91)"/>
<path d="M0 0 C0.66 0.33 1.32 0.66 2 1 C1.67 1.66 1.34 2.32 1 3 C1.66 3 2.32 3 3 3 C3 3.99 3 4.98 3 6 C3.94875 5.95875 4.8975 5.9175 5.875 5.875 C9 6 9 6 11 8 C7.04 7.67 3.08 7.34 -1 7 C-1.33 5.68 -1.66 4.36 -2 3 C-1.34 2.01 -0.68 1.02 0 0 Z " fill="#AA7A3F" transform="translate(87,45)"/>
<path d="M0 0 C1.485 0.2475 1.485 0.2475 3 0.5 C7.02732942 1.08474517 10.93474623 1.07132024 15 1 C14.67 1.99 14.34 2.98 14 4 C10.7 4 7.4 4 4 4 C4 3.34 4 2.68 4 2 C2.68 2 1.36 2 0 2 C0 1.34 0 0.68 0 0 Z " fill="#BD8549" transform="translate(76,70)"/>
<path d="M0 0 C-1.20381448 2.49361571 -2.45428722 4.68143083 -4 7 C-4 6.34 -4 5.68 -4 5 C-4.66 5 -5.32 5 -6 5 C-6 4.34 -6 3.68 -6 3 C-6.99 2.67 -7.98 2.34 -9 2 C-8.34 2 -7.68 2 -7 2 C-7 1.34 -7 0.68 -7 0 C-3.98968256 -0.93423645 -3.13349732 -1.04449911 0 0 Z " fill="#2A1008" transform="translate(92,144)"/>
<path d="M0 0 C1.08667969 0.20367187 2.17335938 0.40734375 3.29296875 0.6171875 C4.54013672 0.86855469 4.54013672 0.86855469 5.8125 1.125 C4.51171875 2.61328125 4.51171875 2.61328125 2.8125 4.125 C-0.375 4.3125 -0.375 4.3125 -3.1875 4.125 C-3.1875 3.465 -3.1875 2.805 -3.1875 2.125 C-6.1575 1.63 -6.1575 1.63 -9.1875 1.125 C-5.43214902 -1.37856732 -4.31860586 -0.8358592 0 0 Z " fill="#D9B178" transform="translate(94.1875,134.875)"/>
<path d="M0 0 C0 0.66 0 1.32 0 2 C-5.0056546 3.31727753 -9.86496656 4.35812082 -15 5 C-14.01 4.34 -13.02 3.68 -12 3 C-11.18402344 2.45279297 -11.18402344 2.45279297 -10.3515625 1.89453125 C-6.58137164 -0.46823542 -4.44828037 -1.6175565 0 0 Z " fill="#A77942" transform="translate(70,80)"/>
<path d="M0 0 C2.49055871 3.76435592 2.03090984 6.86617377 1.625 11.25 C1.51414062 12.51328125 1.40328125 13.7765625 1.2890625 15.078125 C1.14597656 16.52445313 1.14597656 16.52445313 1 18 C0.67 18 0.34 18 0 18 C-0.0825 16.741875 -0.165 15.48375 -0.25 14.1875 C-0.66557143 10.66188788 -0.66557143 10.66188788 -3.0625 8 C-3.701875 7.67 -4.34125 7.34 -5 7 C-3.68 6.67 -2.36 6.34 -1 6 C-0.67 4.02 -0.34 2.04 0 0 Z " fill="#745125" transform="translate(99,43)"/>
<path d="M0 0 C3.28928814 2.19285876 3.59463532 2.84761689 4.75 6.4375 C5.01296875 7.21996094 5.2759375 8.00242187 5.546875 8.80859375 C6 11 6 11 5 14 C4.01 13.67 3.02 13.34 2 13 C1.93941406 12.31292969 1.87882812 11.62585937 1.81640625 10.91796875 C1.73261719 10.01691406 1.64882812 9.11585937 1.5625 8.1875 C1.48128906 7.29417969 1.40007812 6.40085937 1.31640625 5.48046875 C1.06510233 2.87256441 1.06510233 2.87256441 0 0 Z " fill="#C8935A" transform="translate(91,27)"/>
<path d="M0 0 C0.66 0.99 1.32 1.98 2 3 C-2.75 6 -2.75 6 -5 6 C-5 5.01 -5 4.02 -5 3 C-5.99 2.67 -6.98 2.34 -8 2 C-4.79191085 -0.1387261 -3.72301503 -0.47730962 0 0 Z " fill="#B78D59" transform="translate(87,139)"/>
<path d="M0 0 C0.66 0 1.32 0 2 0 C2.125 5.75 2.125 5.75 1 8 C-1.06640625 8.4140625 -1.06640625 8.4140625 -3.5625 8.625 C-4.80193359 8.73714844 -4.80193359 8.73714844 -6.06640625 8.8515625 C-7.02353516 8.92503906 -7.02353516 8.92503906 -8 9 C-8 8.67 -8 8.34 -8 8 C-6.35 8 -4.7 8 -3 8 C-3 7.01 -3 6.02 -3 5 C-2.34 5 -1.68 5 -1 5 C-0.67 3.35 -0.34 1.7 0 0 Z " fill="#270F01" transform="translate(8,104)"/>
<path d="M0 0 C0.99 0 1.98 0 3 0 C3.33 1.65 3.66 3.3 4 5 C4.66 5 5.32 5 6 5 C6.33 6.32 6.66 7.64 7 9 C6.01 9.33 5.02 9.66 4 10 C3.67 9.01 3.34 8.02 3 7 C2.34 6.67 1.68 6.34 1 6 C0.375 2.9375 0.375 2.9375 0 0 Z " fill="#C48F52" transform="translate(67,60)"/>
<path d="M0 0 C0.33 0.66 0.66 1.32 1 2 C1.66 2 2.32 2 3 2 C1.99328314 5.02015057 1.451644 6.09316578 -1 8 C-2.32 8 -3.64 8 -5 8 C-4.45773019 4.20411134 -2.79872437 2.52788007 0 0 Z " fill="#322214" transform="translate(55,54)"/>
<path d="M0 0 C-0.33 0.66 -0.66 1.32 -1 2 C-2.65 2 -4.3 2 -6 2 C-6 2.99 -6 3.98 -6 5 C-6.99 5 -7.98 5 -9 5 C-9.33 3.35 -9.66 1.7 -10 0 C-6.30458414 -0.95024979 -3.69541586 -0.95024979 0 0 Z " fill="#5F4120" transform="translate(95,19)"/>
<path d="M0 0 C4.16138263 -0.08159574 7.9472484 0.01751476 12 1 C12 1.99 12 2.98 12 4 C7.01137151 4.29344873 4.03770942 4.05887078 0 1 C0 0.67 0 0.34 0 0 Z " fill="#B58956" transform="translate(112,138)"/>
<path d="M0 0 C1.32 0.99 2.64 1.98 4 3 C4.25 5.6875 4.25 5.6875 4 8 C4.66 8 5.32 8 6 8 C6 8.66 6 9.32 6 10 C4.35 10 2.7 10 1 10 C0.67 6.7 0.34 3.4 0 0 Z " fill="#BF935A" transform="translate(113,122)"/>
<path d="M0 0 C4.38462134 0.50109958 6.8000997 1.98295115 10 5 C10 5.66 10 6.32 10 7 C9.01 7.33 8.02 7.66 7 8 C7 7.01 7 6.02 7 5 C4.03 4.505 4.03 4.505 1 4 C1.33 3.01 1.66 2.02 2 1 C1.34 0.67 0.68 0.34 0 0 Z " fill="#B68654" transform="translate(89,104)"/>
<path d="M0 0 C1.98 0 3.96 0 6 0 C6.33 0.99 6.66 1.98 7 3 C6.01 3 5.02 3 4 3 C4.33 5.64 4.66 8.28 5 11 C3.5393715 8.35261084 3 7.10551666 3 4 C2.34 4 1.68 4 1 4 C0.67 2.68 0.34 1.36 0 0 Z " fill="#674A20" transform="translate(94,30)"/>
<path d="M0 0 C5.625 -0.25 5.625 -0.25 9 2 C9 2.99 9 3.98 9 5 C7.35 5 5.7 5 4 5 C4 4.01 4 3.02 4 2 C2.68 2 1.36 2 0 2 C0 1.34 0 0.68 0 0 Z " fill="#614027" transform="translate(122,115)"/>
<path d="M0 0 C0.99386719 0.00902344 1.98773438 0.01804687 3.01171875 0.02734375 C4.15060547 0.04474609 4.15060547 0.04474609 5.3125 0.0625 C5.3125 0.3925 5.3125 0.7225 5.3125 1.0625 C2.0125 1.0625 -1.2875 1.0625 -4.6875 1.0625 C-4.6875 2.0525 -4.6875 3.0425 -4.6875 4.0625 C-5.6775 4.7225 -6.6675 5.3825 -7.6875 6.0625 C-8.6775 5.7325 -9.6675 5.4025 -10.6875 5.0625 C-9.875 3.125 -9.875 3.125 -8.6875 1.0625 C-5.53819107 0.01273036 -3.29935544 -0.03881595 0 0 Z " fill="#39270D" transform="translate(152.6875,113.9375)"/>
<path d="M0 0 C0.66 0 1.32 0 2 0 C2 1.98 2 3.96 2 6 C1.34 6 0.68 6 0 6 C0 6.66 0 7.32 0 8 C-0.99 7.67 -1.98 7.34 -3 7 C-2.67 5.35 -2.34 3.7 -2 2 C-1.34 2 -0.68 2 0 2 C0 1.34 0 0.68 0 0 Z " fill="#B89564" transform="translate(19,101)"/>
<path d="M0 0 C0.33 0.66 0.66 1.32 1 2 C4.465 1.505 4.465 1.505 8 1 C8 1.99 8 2.98 8 4 C9.32 4.33 10.64 4.66 12 5 C7.45194365 5.17835515 4.1205746 4.99785435 0 3 C0 2.01 0 1.02 0 0 Z " fill="#BA8951" transform="translate(11,118)"/>
<path d="M0 0 C1.32 0 2.64 0 4 0 C4 0.99 4 1.98 4 3 C4.61875 3.2475 5.2375 3.495 5.875 3.75 C8.35068687 5.20628639 8.95125002 6.37812506 10 9 C8.68 8.67 7.36 8.34 6 8 C6 7.01 6 6.02 6 5 C5.01 5 4.02 5 3 5 C1.3125 3.625 1.3125 3.625 0 2 C0 1.34 0 0.68 0 0 Z " fill="#422A0C" transform="translate(126,152)"/>
<path d="M0 0 C2.64 0 5.28 0 8 0 C7.67 0.99 7.34 1.98 7 3 C6.01 3 5.02 3 4 3 C4 3.66 4 4.32 4 5 C2.68 4.67 1.36 4.34 0 4 C0 2.68 0 1.36 0 0 Z " fill="#443316" transform="translate(109,144)"/>
<path d="M0 0 C5.75 -0.125 5.75 -0.125 8 1 C8 2.32 8 3.64 8 5 C7.34 5 6.68 5 6 5 C6 4.34 6 3.68 6 3 C4.02 3 2.04 3 0 3 C0 2.01 0 1.02 0 0 Z " fill="#614321" transform="translate(152,120)"/>
<path d="M0 0 C-1.65 1.65 -3.3 3.3 -5 5 C-5.99 4.67 -6.98 4.34 -8 4 C-8 2.68 -8 1.36 -8 0 C-2.25 -1.125 -2.25 -1.125 0 0 Z " fill="#472B0C" transform="translate(8,113)"/>
<path d="M0 0 C2.64 0 5.28 0 8 0 C8 0.99 8 1.98 8 3 C4.37 3 0.74 3 -3 3 C-2.01 2.67 -1.02 2.34 0 2 C0 1.34 0 0.68 0 0 Z " fill="#C39961" transform="translate(101,135)"/>
<path d="M0 0 C2.64 0 5.28 0 8 0 C7.67 1.32 7.34 2.64 7 4 C7.99 4 8.98 4 10 4 C10 4.66 10 5.32 10 6 C8.35 5.67 6.7 5.34 5 5 C4.67 4.01 4.34 3.02 4 2 C1.98491642 1.26676204 1.98491642 1.26676204 0 1 C0 0.67 0 0.34 0 0 Z " fill="#AE8C5D" transform="translate(70,133)"/>
<path d="M0 0 C0.33 0.66 0.66 1.32 1 2 C2.65 2 4.3 2 6 2 C6 2.99 6 3.98 6 5 C3.36 5 0.72 5 -2 5 C-1.34 3.35 -0.68 1.7 0 0 Z " fill="#8D6134" transform="translate(4,116)"/>
<path d="M0 0 C0.185625 0.9590625 0.185625 0.9590625 0.375 1.9375 C0.684375 2.9584375 0.684375 2.9584375 1 4 C1.66 4.33 2.32 4.66 3 5 C3 6.32 3 7.64 3 9 C3.99 9.33 4.98 9.66 6 10 C4.68 10 3.36 10 2 10 C2 8.68 2 7.36 2 6 C0.35 6 -1.3 6 -3 6 C-2.42655063 3.13275314 -2.1385485 2.1385485 0 0 Z " fill="#986C3A" transform="translate(8,112)"/>
<path d="M0 0 C1.98 0 3.96 0 6 0 C7.4606285 2.64738916 8 3.89448334 8 7 C6.02 7.33 4.04 7.66 2 8 C2.66 7.67 3.32 7.34 4 7 C4 6.01 4 5.02 4 4 C4.66 4 5.32 4 6 4 C5.67 3.34 5.34 2.68 5 2 C2.47266765 1.34444881 2.47266765 1.34444881 0 1 C0 0.67 0 0.34 0 0 Z " fill="#B18048" transform="translate(73,44)"/>
<path d="M0 0 C0.66 0 1.32 0 2 0 C1.88652381 1.97986082 1.7589065 3.95891598 1.625 5.9375 C1.52058594 7.59072266 1.52058594 7.59072266 1.4140625 9.27734375 C1.27742188 10.17582031 1.14078125 11.07429688 1 12 C0.01 12.495 0.01 12.495 -1 13 C-1.02686553 11.02090602 -1.04633375 9.04171029 -1.0625 7.0625 C-1.07410156 5.96035156 -1.08570312 4.85820312 -1.09765625 3.72265625 C-1 1 -1 1 0 0 Z " fill="#745629" transform="translate(66,27)"/>
<path d="M0 0 C1.1446875 1.175625 1.1446875 1.175625 2.3125 2.375 C4.90891805 5.07257717 4.90891805 5.07257717 8 7 C5.69 7.33 3.38 7.66 1 8 C-1.125 3.375 -1.125 3.375 0 0 Z " fill="#D09959" transform="translate(11,112)"/>
<path d="M0 0 C2.64 0 5.28 0 8 0 C8 0.33 8 0.66 8 1 C6.68 1.33 5.36 1.66 4 2 C4.99 2.33 5.98 2.66 7 3 C5.02 3.99 3.04 4.98 1 6 C0.67 4.02 0.34 2.04 0 0 Z " fill="#5D4213" transform="translate(64,22)"/>
<path d="M0 0 C0 1.98 0 3.96 0 6 C-1.32 5.67 -2.64 5.34 -4 5 C-4.33 3.68 -4.66 2.36 -5 1 C-1.125 0 -1.125 0 0 0 Z " fill="#483322" transform="translate(81,154)"/>
<path d="M0 0 C2 1 2 1 3.1875 3.8125 C3.96421451 6.85961076 4.10096399 8.13749363 3 11 C2.34 10.67 1.68 10.34 1 10 C0.5859375 7.71484375 0.5859375 7.71484375 0.375 4.9375 C0.30023438 4.01839844 0.22546875 3.09929687 0.1484375 2.15234375 C0.09945312 1.44207031 0.05046875 0.73179687 0 0 Z " fill="#4E3F24" transform="translate(65,146)"/>
<path d="M0 0 C2.64 0.33 5.28 0.66 8 1 C8 2.98 8 4.96 8 7 C7.34 5.68 6.68 4.36 6 3 C4.68 3 3.36 3 2 3 C1.67 3.66 1.34 4.32 1 5 C0.67 3.35 0.34 1.7 0 0 Z " fill="#2E1C0E" transform="translate(74,152)"/>
<path d="M0 0 C3.24271506 0.5590888 4.93057424 1.4132178 7 4 C7 4.66 7 5.32 7 6 C5.35 6 3.7 6 2 6 C1.34 4.02 0.68 2.04 0 0 Z " fill="#543415" transform="translate(75,138)"/>
<path d="M0 0 C1.32 0.99 2.64 1.98 4 3 C1.64561267 4.42944945 0.51967567 5.08661261 -2.25 4.625 C-2.8275 4.41875 -3.405 4.2125 -4 4 C-2.68 2.68 -1.36 1.36 0 0 Z " fill="#3D230B" transform="translate(100,103)"/>
<path d="M0 0 C0.99 0 1.98 0 3 0 C3.33 1.98 3.66 3.96 4 6 C2.68 6 1.36 6 0 6 C0 4.02 0 2.04 0 0 Z " fill="#624623" transform="translate(146,134)"/>
<path d="M0 0 C2.31 0 4.62 0 7 0 C7.33 0.99 7.66 1.98 8 3 C5.33333333 3 2.66666667 3 0 3 C0 2.01 0 1.02 0 0 Z " fill="#5D4121" transform="translate(132,120)"/>
<path d="M0 0 C0.33 0 0.66 0 1 0 C2.97094808 4.92737019 3.1799928 8.78020872 3 14 C-0.26566506 9.10150241 -0.09311493 5.68001091 0 0 Z " fill="#A16E3A" transform="translate(67,62)"/>
<path d="M0 0 C0.66 0 1.32 0 2 0 C2 2.97 2 5.94 2 9 C1.01 9.33 0.02 9.66 -1 10 C-1 9.01 -1 8.02 -1 7 C-1.66 6.67 -2.32 6.34 -3 6 C-1.68 5.67 -0.36 5.34 1 5 C0.67 3.35 0.34 1.7 0 0 Z " fill="#C9965F" transform="translate(80,46)"/>
<path d="M0 0 C0.99 0.33 1.98 0.66 3 1 C2.34 1 1.68 1 1 1 C1 1.99 1 2.98 1 4 C-1.64 3.67 -4.28 3.34 -7 3 C-6.67 2.34 -6.34 1.68 -6 1 C-4.7934375 1.0309375 -4.7934375 1.0309375 -3.5625 1.0625 C-1.06645115 1.29633621 -1.06645115 1.29633621 0 0 Z " fill="#3B200D" transform="translate(119,109)"/>
<path d="M0 0 C0.33 0 0.66 0 1 0 C1 4.29 1 8.58 1 13 C0.67 13 0.34 13 0 13 C0 10.69 0 8.38 0 6 C-0.66 6 -1.32 6 -2 6 C-2 4.68 -2 3.36 -2 2 C-1.34 2 -0.68 2 0 2 C0 1.34 0 0.68 0 0 Z " fill="#5B391B" transform="translate(64,45)"/>
<path d="M0 0 C0 0.99 0 1.98 0 3 C-3.3 2.34 -6.6 1.68 -10 1 C-10 0.67 -10 0.34 -10 0 C-6.30458414 -0.95024979 -3.69541586 -0.95024979 0 0 Z " fill="#44270F" transform="translate(130,113)"/>
<path d="M0 0 C1.98 0 3.96 0 6 0 C6 0.99 6 1.98 6 3 C3.69 3 1.38 3 -1 3 C-0.67 2.01 -0.34 1.02 0 0 Z " fill="#6F3A0C" transform="translate(69,49)"/>
<path d="M0 0 C0.99 0.33 1.98 0.66 3 1 C3 2.98 3 4.96 3 7 C1.68 7 0.36 7 -1 7 C-0.67 4.69 -0.34 2.38 0 0 Z " fill="#221107" transform="translate(61,31)"/>
<path d="M0 0 C0.33 1.32 0.66 2.64 1 4 C-2.26954202 3.43628586 -3.82575883 2.50037734 -6 0 C-3.50907189 -1.24546405 -2.58919267 -0.7767578 0 0 Z " fill="#492C04" transform="translate(104,108)"/>
<path d="M0 0 C0.66 0.33 1.32 0.66 2 1 C0.68 1.33 -0.64 1.66 -2 2 C-2 3.32 -2 4.64 -2 6 C-3.65 5.67 -5.3 5.34 -7 5 C-4.63707344 2.47411298 -3.33537489 1.11179163 0 0 Z " fill="#9B734A" transform="translate(41,89)"/>
<path d="M0 0 C1.65 0 3.3 0 5 0 C5 0.99 5 1.98 5 3 C3.68 3 2.36 3 1 3 C0.67 4.32 0.34 5.64 0 7 C0 4.69 0 2.38 0 0 Z " fill="#BD915A" transform="translate(66,53)"/>
<path d="M0 0 C0.33 0 0.66 0 1 0 C1.33 2.31 1.66 4.62 2 7 C1.01 7.66 0.02 8.32 -1 9 C-1.09765625 2.84765625 -1.09765625 2.84765625 -1 1 C-0.67 0.67 -0.34 0.34 0 0 Z " fill="#1F0D02" transform="translate(104,47)"/>
<path d="M0 0 C0.33 0 0.66 0 1 0 C1 1.98 1 3.96 1 6 C-3.455 5.01 -3.455 5.01 -8 4 C-8 3.67 -8 3.34 -8 3 C-5.36 3 -2.72 3 0 3 C0 2.01 0 1.02 0 0 Z " fill="#9F7745" transform="translate(98,41)"/>
<path d="M0 0 C0 0.66 0 1.32 0 2 C-2.97 2.66 -5.94 3.32 -9 4 C-5 0 -5 0 0 0 Z " fill="#B7905E" transform="translate(52,86)"/>
<path d="M0 0 C0.99 0.33 1.98 0.66 3 1 C3 1.66 3 2.32 3 3 C5.31 3.33 7.62 3.66 10 4 C10 4.33 10 4.66 10 5 C7.03 5 4.06 5 1 5 C0.67 3.35 0.34 1.7 0 0 Z " fill="#6A4421" transform="translate(0,117)"/>
<path d="M0 0 C2 0 2 0 4.625 2.5 C5.40875 3.325 6.1925 4.15 7 5 C6.67 5.66 6.34 6.32 6 7 C5.34 6.34 4.68 5.68 4 5 C1.93125966 4.3574765 1.93125966 4.3574765 0 4 C0 2.68 0 1.36 0 0 Z " fill="#7F5227" transform="translate(89,100)"/>
<path d="M0 0 C2.475 0.495 2.475 0.495 5 1 C4.67 2.32 4.34 3.64 4 5 C2.68 4.34 1.36 3.68 0 3 C0 2.01 0 1.02 0 0 Z " fill="#C39C64" transform="translate(59,88)"/>
<path d="M0 0 C0.66 0.99 1.32 1.98 2 3 C1.67 3.66 1.34 4.32 1 5 C-1.475 4.01 -1.475 4.01 -4 3 C-4 2.34 -4 1.68 -4 1 C-2.68 0.67 -1.36 0.34 0 0 Z " fill="#3E2D19" transform="translate(95,86)"/>
<path d="M0 0 C0.99 0 1.98 0 3 0 C3 0.66 3 1.32 3 2 C4.32 1.67 5.64 1.34 7 1 C6.67 1.99 6.34 2.98 6 4 C4.35 3.67 2.7 3.34 1 3 C0.67 2.01 0.34 1.02 0 0 Z " fill="#714516" transform="translate(80,64)"/>
<path d="M0 0 C0.99 0.66 1.98 1.32 3 2 C3 2.99 3 3.98 3 5 C2.01 5 1.02 5 0 5 C-0.33 5.66 -0.66 6.32 -1 7 C-1.33 6.01 -1.66 5.02 -2 4 C-1.34 4 -0.68 4 0 4 C0 2.68 0 1.36 0 0 Z " fill="#C69560" transform="translate(80,59)"/>
<path d="M0 0 C0.33 1.32 0.66 2.64 1 4 C1.66 4 2.32 4 3 4 C3 5.65 3 7.3 3 9 C1.66666667 8.33333333 0.33333333 7.66666667 -1 7 C-0.67 4.69 -0.34 2.38 0 0 Z " fill="#39210E" transform="translate(61,47)"/>
<path d="M0 0 C0.33 0 0.66 0 1 0 C1 1.98 1 3.96 1 6 C1.99 6.33 2.98 6.66 4 7 C3.01 7.99 2.02 8.98 1 10 C0 9 0 9 -0.09765625 6.93359375 C-0.08605469 6.10988281 -0.07445313 5.28617188 -0.0625 4.4375 C-0.05347656 3.61121094 -0.04445313 2.78492188 -0.03515625 1.93359375 C-0.02355469 1.29550781 -0.01195313 0.65742187 0 0 Z " fill="#9E7842" transform="translate(65,40)"/>
<path d="M0 0 C0.68707555 2.49064888 1 4.37886292 1 7 C0.01 6.67 -0.98 6.34 -2 6 C-2.6875 3.9375 -2.6875 3.9375 -3 2 C-2.01 1.34 -1.02 0.68 0 0 Z " fill="#3E2C1E" transform="translate(55,45)"/>
</svg>
